<svg xmlns="http://www.w3.org/2000/svg" viewBox="0 0 1200 800" role="img" aria-labelledby="title desc">
  <title id="title">Cocktail image placeholder</title>
  <desc id="desc">A styled placeholder image for cocktail cards.</desc>
  <defs>
    <linearGradient id="bg" x1="0" x2="1" y1="0" y2="1">
      <stop offset="0" stop-color="#f6efe3"/>
      <stop offset="1" stop-color="#d6b77b"/>
    </linearGradient>
    <linearGradient id="drink" x1="0" x2="0" y1="0" y2="1">
      <stop offset="0" stop-color="#d88a32"/>
      <stop offset="1" stop-color="#7b3f16"/>
    </linearGradient>
  </defs>
  <rect width="1200" height="800" fill="url(#bg)"/>
  <circle cx="930" cy="135" r="95" fill="#fff4d6" opacity="0.55"/>
  <g transform="translate(420 130)">
    <path d="M90 95h300l-42 505c-5 58-53 102-111 102h-5c-58 0-106-44-111-102L90 95z" fill="#ffffff" opacity="0.62" stroke="#3a2a1e" stroke-width="14"/>
    <path d="M122 330h236l-23 248c-4 41-38 72-79 72h-31c-41 0-75-31-79-72l-24-248z" fill="url(#drink)" opacity="0.92"/>
    <rect x="153" y="390" width="72" height="72" rx="14" fill="#f8e7ca" opacity="0.7"/>
    <rect x="245" y="365" width="88" height="88" rx="16" fill="#f8e7ca" opacity="0.52"/>
    <path d="M178 238c58-34 111-35 166-2" fill="none" stroke="#c85f24" stroke-width="24" stroke-linecap="round"/>
    <path d="M338 172c52 24 79 59 80 108" fill="none" stroke="#bd5b23" stroke-width="18" stroke-linecap="round"/>
  </g>
  <text x="600" y="735" text-anchor="middle" font-family="Inter, Arial, sans-serif" font-size="46" font-weight="700" fill="#2d241d">Cocktail Photo</text>
</svg>
